<svg width="19" height="19" viewBox="0 0 19 19" fill="none" xmlns="http://www.w3.org/2000/svg">
<path d="M9.5 0C6.98044 0 4.56408 1.00089 2.78249 2.78249C1.00089 4.56408 0 6.98044 0 9.5C0 12.0196 1.00089 14.4359 2.78249 16.2175C4.56408 17.9991 6.98044 19 9.5 19C12.0196 19 14.4359 17.9991 16.2175 16.2175C17.9991 14.4359 19 12.0196 19 9.5C19 6.98044 17.9991 4.56408 16.2175 2.78249C14.4359 1.00089 12.0196 0 9.5 0ZM9.5 2.841C10.3334 2.841 11.1327 3.172 11.7221 3.76122C12.3115 4.35043 12.6427 5.1496 12.643 5.983C12.643 6.3957 12.5617 6.80435 12.4037 7.18562C12.2458 7.56689 12.0142 7.91332 11.7224 8.20509C11.4305 8.49687 11.084 8.72828 10.7027 8.88612C10.3214 9.04397 9.9127 9.12513 9.5 9.125C8.66669 9.125 7.86751 8.79397 7.27827 8.20473C6.68903 7.61549 6.358 6.81631 6.358 5.983C6.358 5.14969 6.68903 4.35052 7.27827 3.76128C7.86751 3.17204 8.66669 2.841 9.5 2.841ZM9.5 16.517C7.83535 16.5189 6.22496 15.9251 4.96 14.843C4.81273 14.7174 4.69445 14.5613 4.61331 14.3856C4.53217 14.2098 4.4901 14.0186 4.49 13.825C4.49013 13.4077 4.57269 12.9945 4.73294 12.6091C4.89319 12.2238 5.12798 11.8739 5.42383 11.5795C5.71968 11.2852 6.07075 11.0521 6.4569 10.8938C6.84305 10.7355 7.25667 10.655 7.674 10.657H11.33C11.7471 10.655 12.1605 10.7355 12.5463 10.8939C12.9322 11.0523 13.283 11.2854 13.5784 11.5798C13.8739 11.8742 14.1082 12.2242 14.2679 12.6095C14.4276 12.9948 14.5095 13.4079 14.509 13.825C14.5091 14.0184 14.4672 14.2094 14.3862 14.385C14.3052 14.5606 14.1871 14.7165 14.04 14.842C12.7746 15.9247 11.1634 16.5185 9.498 16.516L9.5 16.517Z" fill="#666666"/>
</svg>
