<svg width="21" height="23" viewBox="0 0 21 23" fill="none" xmlns="http://www.w3.org/2000/svg">
<path fill-rule="evenodd" clip-rule="evenodd" d="M18.2894 18.6879H13.5429V21.5626H14.8977C15.0728 21.5699 15.2384 21.6488 15.3599 21.7828C15.4813 21.9167 15.5492 22.0954 15.5492 22.2813C15.5492 22.4672 15.4813 22.6459 15.3599 22.7798C15.2384 22.9138 15.0728 22.9927 14.8977 23H6.77402C6.59894 22.9927 6.4333 22.9138 6.31185 22.7798C6.19039 22.6459 6.12256 22.4672 6.12256 22.2813C6.12256 22.0954 6.19039 21.9167 6.31185 21.7828C6.4333 21.6488 6.59894 21.5699 6.77402 21.5626H8.12884V18.6879H2.70959C2.35367 18.6879 2.00124 18.6135 1.67242 18.469C1.34361 18.3244 1.04488 18.1126 0.793258 17.8455C0.541634 17.5785 0.342049 17.2614 0.205939 16.9125C0.0698288 16.5636 -0.000135546 16.1897 1.97145e-07 15.8121V2.87473C1.97145e-07 2.11231 0.285454 1.38111 0.793605 0.841996C1.30176 0.302881 1.99096 0 2.70959 0H18.2904C19.009 0 19.6982 0.302881 20.2064 0.841996C20.7145 1.38111 21 2.11231 21 2.87473V15.8121C21.0001 16.1898 20.9301 16.5638 20.7939 16.9128C20.6578 17.2617 20.4581 17.5788 20.2064 17.8459C19.9546 18.113 19.6558 18.3248 19.3269 18.4693C18.9979 18.6138 18.6454 18.688 18.2894 18.6879ZM12.1922 21.5626V18.6879H9.48157V21.5626H12.1922ZM19.6431 2.87694C19.6431 2.49602 19.5005 2.13068 19.2466 1.86133C18.9927 1.59197 18.6484 1.44068 18.2894 1.44068H2.70959C2.35045 1.44068 2.00601 1.59194 1.75196 1.86126C1.49791 2.13058 1.35505 2.49592 1.35478 2.87694V12.9385H19.6462L19.6431 2.87694ZM19.6431 14.3769H1.35169V15.8132C1.35196 16.1943 1.49479 16.5597 1.74881 16.8292C2.00282 17.0987 2.34727 17.2502 2.7065 17.2505H18.2873C18.6464 17.2502 18.9907 17.0987 19.2446 16.8292C19.4985 16.5596 19.6411 16.1942 19.6411 15.8132L19.6431 14.3769Z" fill="white"/>
</svg>
