<svg width="26" height="39" viewBox="0 0 26 39" fill="none" xmlns="http://www.w3.org/2000/svg">
<path d="M4.12516 14.223C3.21746 14.8178 2.66494 16.4038 2.88858 17.8247C3.00697 18.502 3.15168 18.4525 3.25692 17.6925C3.34901 16.9325 3.73051 16.2717 4.29618 15.9082C5.26966 15.2639 7.13769 16.1064 9.08465 18.0725C10.8474 19.8403 12.2287 22.0706 13.268 24.8132C14.8729 28.993 14.5046 32.0495 12.3997 32.099C11.5841 32.1156 11.5578 32.4295 12.334 32.6773C13.7153 33.1068 14.7677 32.6938 15.3202 31.4877C15.7543 30.5295 15.7675 28.3652 15.3202 26.5809C14.5703 23.4915 13.1496 20.7159 10.9001 17.9073C8.82155 15.3134 7.22977 14.1404 5.48014 13.9256C4.84869 13.843 4.6119 13.8926 4.12516 14.223ZM3.24377 0.212982C1.30996 0.972958 0.270706 3.17029 0.257551 6.50759C0.244395 8.37449 0.415412 10.4396 0.560119 10.3075C0.625894 10.2744 0.704825 9.58054 0.731136 8.78752C0.862687 6.22672 1.5336 4.67373 2.91489 3.83114C6.86143 1.40251 15.1097 8.50666 19.885 18.4359C22.7397 24.3836 23.9368 30.2982 23.0028 33.7181C22.7397 34.6764 21.8978 35.8824 21.1742 36.378C20.4375 36.8737 18.3853 36.8902 17.2145 36.4276L16.4252 36.0972L17.2671 35.9815C19.4246 35.6511 20.4375 33.9659 20.4375 30.6947C20.4375 24.6645 16.0043 15.4952 10.6896 10.5553C9.29513 9.26664 7.22977 7.97798 5.96688 7.64755C2.66494 6.77192 0.823222 9.06838 1.16526 13.6283C1.21788 14.3056 1.29681 14.8508 1.36258 14.8508C1.4152 14.8508 1.50729 14.3882 1.54675 13.81C1.70462 12.0587 2.33606 10.8031 3.29639 10.291C4.32249 9.74575 6.41416 10.2414 8.04539 11.4144C9.13727 12.1909 10.7422 13.7439 11.913 15.1482C16.5831 20.7489 19.4772 29.3895 17.9512 33.1564C17.3987 34.5277 16.4647 35.1059 15.0308 34.9572C14.5309 34.9077 14.0968 34.9242 14.0573 35.0068C13.9784 35.172 14.8071 35.6015 15.5175 35.7502C15.7938 35.8163 16.0963 35.965 16.1753 36.0972C16.3858 36.4276 17.9117 37.2702 19.0826 37.6832C19.8192 37.9476 20.4638 38.0467 21.3584 38.0467C22.4503 38.0467 22.7134 37.9971 23.3974 37.6006C24.3183 37.0554 24.6472 36.7085 25.1734 35.6676C25.7391 34.5607 25.9758 33.2225 25.989 31.1243C25.989 27.82 25.2392 24.4827 23.5158 20.1376C21.753 15.7099 19.7403 12.1909 16.8988 8.52318C13.3732 3.99635 10.1765 1.35295 6.94036 0.312107C5.76955 -0.0678825 4.0857 -0.100925 3.24377 0.212982Z" fill="#009345"/>
</svg>
