<svg width="19" height="19" viewBox="0 0 19 19" fill="none" xmlns="http://www.w3.org/2000/svg">
<path fill-rule="evenodd" clip-rule="evenodd" d="M16.256 18.965H13.543C12.8245 18.965 12.1355 18.6796 11.6274 18.1716C11.1194 17.6635 10.834 16.9745 10.834 16.256V13.546C10.834 12.8275 11.1194 12.1385 11.6274 11.6304C12.1355 11.1224 12.8245 10.837 13.543 10.837H16.252C16.6078 10.8369 16.9602 10.9068 17.289 11.0429C17.6178 11.179 17.9165 11.3786 18.1682 11.6301C18.4199 11.8817 18.6195 12.1804 18.7557 12.5091C18.8919 12.8378 18.962 13.1902 18.962 13.546V16.256C18.962 16.974 18.677 17.6626 18.1696 18.1705C17.6622 18.6785 16.974 18.9642 16.256 18.965ZM17.611 13.546C17.6107 13.1868 17.4679 12.8424 17.2138 12.5885C16.9597 12.3346 16.6152 12.192 16.256 12.192H13.543C13.1838 12.192 12.8393 12.3346 12.5852 12.5885C12.3311 12.8424 12.1883 13.1868 12.188 13.546V16.256C12.1883 16.6152 12.3311 16.9596 12.5852 17.2135C12.8393 17.4674 13.1838 17.61 13.543 17.61H16.252C16.6112 17.61 16.9557 17.4674 17.2098 17.2135C17.4639 16.9596 17.6067 16.6152 17.607 16.256L17.611 13.546ZM16.256 8.12799H13.543C13.1872 8.12799 12.8348 8.05789 12.5061 7.92169C12.1773 7.78549 11.8787 7.58589 11.6271 7.33423C11.3755 7.08257 11.176 6.7838 11.0399 6.45502C10.9038 6.12623 10.8339 5.77386 10.834 5.41803V2.70898C10.834 1.99051 11.1194 1.30149 11.6274 0.793457C12.1355 0.285421 12.8245 1.84562e-07 13.543 1.84562e-07H16.252C16.6078 -0.000131168 16.9602 0.0698516 17.289 0.205933C17.6178 0.342014 17.9165 0.541524 18.1682 0.793091C18.4199 1.04466 18.6195 1.34338 18.7557 1.67212C18.8919 2.00086 18.962 2.35315 18.962 2.70898V5.41803C18.962 6.13607 18.677 6.82478 18.1697 7.33289C17.6623 7.84099 16.974 8.12693 16.256 8.12799ZM17.611 2.70898C17.611 2.34962 17.4682 2.00497 17.2141 1.75085C16.96 1.49674 16.6154 1.354 16.256 1.354H13.543C13.1836 1.354 12.839 1.49674 12.5849 1.75085C12.3308 2.00497 12.188 2.34962 12.188 2.70898V5.41803C12.188 5.7774 12.3308 6.12205 12.5849 6.37616C12.839 6.63027 13.1836 6.77301 13.543 6.77301H16.252C16.6114 6.77301 16.956 6.63027 17.2101 6.37616C17.4642 6.12205 17.607 5.7774 17.607 5.41803L17.611 2.70898ZM5.419 18.965H2.71C2.35416 18.9652 2.00179 18.8952 1.673 18.7591C1.34422 18.623 1.04546 18.4235 0.7938 18.1719C0.54214 17.9204 0.342509 17.6216 0.206306 17.2929C0.0701039 16.9642 -2.42438e-08 16.6119 0 16.256V13.546C-2.42438e-08 13.1902 0.0701039 12.8378 0.206306 12.5091C0.342509 12.1804 0.54214 11.8817 0.7938 11.6301C1.04546 11.3786 1.34422 11.179 1.673 11.0429C2.00179 10.9068 2.35416 10.8369 2.71 10.837H5.419C6.13747 10.837 6.82652 11.1224 7.33456 11.6304C7.84259 12.1385 8.12801 12.8275 8.12801 13.546V16.256C8.12801 16.9745 7.84259 17.6635 7.33456 18.1716C6.82652 18.6796 6.13747 18.965 5.419 18.965ZM6.774 13.546C6.77374 13.1868 6.63086 12.8424 6.37678 12.5885C6.12269 12.3346 5.77819 12.192 5.419 12.192H2.71C2.3508 12.192 2.00631 12.3346 1.75223 12.5885C1.49814 12.8424 1.35527 13.1868 1.355 13.546V16.256C1.35527 16.6152 1.49814 16.9596 1.75223 17.2135C2.00631 17.4674 2.3508 17.61 2.71 17.61H5.419C5.77819 17.61 6.12269 17.4674 6.37678 17.2135C6.63086 16.9596 6.77374 16.6152 6.774 16.256V13.546ZM5.419 8.12799H2.71C1.99126 8.12799 1.30196 7.84251 0.793739 7.33429C0.285516 6.82607 0 6.13677 0 5.41803V2.70898C-2.42438e-08 2.35315 0.0701039 2.00086 0.206306 1.67212C0.342509 1.34338 0.54214 1.04466 0.7938 0.793091C1.04546 0.541524 1.34422 0.342014 1.673 0.205933C2.00179 0.0698516 2.35416 -0.000131168 2.71 1.84562e-07H5.419C6.13747 1.84562e-07 6.82652 0.285421 7.33456 0.793457C7.84259 1.30149 8.12801 1.99051 8.12801 2.70898V5.41803C8.12814 5.77386 8.05816 6.12623 7.92208 6.45502C7.786 6.7838 7.58647 7.08257 7.33491 7.33423C7.08334 7.58589 6.78466 7.78549 6.45592 7.92169C6.12719 8.05789 5.77483 8.12799 5.419 8.12799ZM6.774 2.70898C6.774 2.34962 6.63124 2.00497 6.37713 1.75085C6.12302 1.49674 5.77837 1.354 5.419 1.354H2.71C2.35063 1.354 2.00598 1.49674 1.75187 1.75085C1.49776 2.00497 1.355 2.34962 1.355 2.70898V5.41803C1.355 5.7774 1.49776 6.12205 1.75187 6.37616C2.00598 6.63027 2.35063 6.77301 2.71 6.77301H5.419C5.77837 6.77301 6.12302 6.63027 6.37713 6.37616C6.63124 6.12205 6.774 5.7774 6.774 5.41803V2.70898Z" fill="#666666"/>
</svg>
