<svg width="19" height="21" viewBox="0 0 19 21" fill="none" xmlns="http://www.w3.org/2000/svg">
<path fill-rule="evenodd" clip-rule="evenodd" d="M12.801 17.611C12.6448 18.3759 12.2292 19.0633 11.6245 19.5569C11.0198 20.0506 10.2631 20.3203 9.4825 20.3203C8.70187 20.3203 7.9452 20.0506 7.3405 19.5569C6.7358 19.0633 6.32019 18.3759 6.16399 17.611H0L2.709 12.192V6.77301C2.709 4.97657 3.42262 3.25368 4.6929 1.9834C5.96318 0.713121 7.68605 -0.000488281 9.4825 -0.000488281C11.2789 -0.000488281 13.0018 0.713121 14.2721 1.9834C15.5424 3.25368 16.256 4.97657 16.256 6.77301V12.192L18.965 17.611H12.801ZM9.48299 18.965C9.90182 18.9641 10.3101 18.8334 10.6516 18.5909C10.9931 18.3485 11.2511 18.0061 11.39 17.611H7.575C7.71414 18.0061 7.97233 18.3483 8.31403 18.5906C8.65572 18.8329 9.0641 18.9634 9.48299 18.964V18.965ZM14.901 12.192V6.77301C14.8817 5.34868 14.3022 3.98927 13.2882 2.98889C12.2741 1.98851 10.907 1.42761 9.4825 1.42761C8.05804 1.42761 6.69085 1.98851 5.67679 2.98889C4.66273 3.98927 4.08335 5.34868 4.064 6.77301V12.192L2.032 16.256H16.932L14.901 12.192Z" fill="#666666"/>
</svg>
